# xmcd CD database file
#
# Track frame offsets:
#	150
#	22708
#	52548
#	98269
#	155847
#	174067
#
# Disc length: 3010 seconds
#
# Revision: 3
# Processed by: cddbd v1.4PL0 Copyright (c) Steve Scherf et al.
# Submitted via: CDex 1.40Release
#
DISCID=2a0bc006
DTITLE=Stevie Ray Vaughan - Colorado and New Mexico [disc 2]
DYEAR=1989
DGENRE=Blues
TTITLE0=Superstition
TTITLE1=Cold Shot
TTITLE2=Riviera Paradise
TTITLE3=Life Without You
TTITLE4=Crossfire
TTITLE5=Voodoo Chile [Slight Return]
EXTD=YEAR: 1989 ID3G: 0
EXTT0=
EXTT1=
EXTT2=
EXTT3=
EXTT4=
EXTT5=
PLAYORDER=
